<mxfile host="app.diagrams.net" modified="2023-02-22T13:48:10.394Z" agent="5.0 (Windows NT 10.0; Win64; x64) AppleWebKit/537.36 (KHTML, like Gecko) Chrome/110.0.0.0 Safari/537.36" etag="U56TSzI_O94u9bHKMIeX" version="20.8.20" type="github">
  <diagram name="Page-1" id="c7558073-3199-34d8-9f00-42111426c3f3">
    <mxGraphModel dx="1876" dy="1700" grid="1" gridSize="10" guides="1" tooltips="1" connect="1" arrows="1" fold="1" page="1" pageScale="1" pageWidth="826" pageHeight="1169" background="none" math="0" shadow="0">
      <root>
        <mxCell id="0" />
        <mxCell id="1" parent="0" />
        <mxCell id="tA9zOFN0ShzeOzI9jUtP-102" style="edgeStyle=orthogonalEdgeStyle;rounded=0;orthogonalLoop=1;jettySize=auto;html=1;exitX=1;exitY=0.5;exitDx=0;exitDy=0;entryX=0;entryY=0.5;entryDx=0;entryDy=0;fontSize=16;" edge="1" parent="1" source="3" target="tA9zOFN0ShzeOzI9jUtP-100">
          <mxGeometry relative="1" as="geometry" />
        </mxCell>
        <mxCell id="3" value="图像转化为二进制比特流" style="whiteSpace=wrap;align=center;verticalAlign=middle;fontStyle=0;strokeWidth=1;fillColor=#FFFFCC;fontSize=14;rounded=1;" parent="1" vertex="1">
          <mxGeometry x="130" y="46" width="110" height="60" as="geometry" />
        </mxCell>
        <mxCell id="tA9zOFN0ShzeOzI9jUtP-115" style="edgeStyle=orthogonalEdgeStyle;rounded=0;orthogonalLoop=1;jettySize=auto;html=1;exitX=0.837;exitY=1.016;exitDx=0;exitDy=0;entryX=1;entryY=0.5;entryDx=0;entryDy=0;fontSize=16;exitPerimeter=0;" edge="1" parent="1" source="5" target="tA9zOFN0ShzeOzI9jUtP-108">
          <mxGeometry relative="1" as="geometry">
            <Array as="points">
              <mxPoint x="719" y="216" />
            </Array>
          </mxGeometry>
        </mxCell>
        <mxCell id="5" value="信道" style="shape=process;whiteSpace=wrap;align=center;verticalAlign=middle;size=0.0475;fontStyle=0;strokeWidth=3;fillColor=#d5e8d4;fontSize=16;direction=south;strokeColor=#82b366;opacity=70;" parent="1" vertex="1">
          <mxGeometry x="720" y="46" width="74" height="200" as="geometry" />
        </mxCell>
        <mxCell id="tA9zOFN0ShzeOzI9jUtP-112" style="edgeStyle=orthogonalEdgeStyle;rounded=0;orthogonalLoop=1;jettySize=auto;html=1;exitX=1;exitY=0.5;exitDx=0;exitDy=0;exitPerimeter=0;entryX=0;entryY=0.5;entryDx=0;entryDy=0;fontSize=16;" edge="1" parent="1" source="tA9zOFN0ShzeOzI9jUtP-96" target="3">
          <mxGeometry relative="1" as="geometry" />
        </mxCell>
        <mxCell id="tA9zOFN0ShzeOzI9jUtP-96" value="&lt;font style=&quot;font-size: 14px;&quot;&gt;读取图像源&lt;/font&gt;" style="shape=cylinder3;whiteSpace=wrap;html=1;boundedLbl=1;backgroundOutline=1;size=15;fillColor=#fff2cc;strokeColor=#d6b656;strokeWidth=2;" vertex="1" parent="1">
          <mxGeometry x="20" y="34" width="80" height="84" as="geometry" />
        </mxCell>
        <mxCell id="tA9zOFN0ShzeOzI9jUtP-107" style="edgeStyle=orthogonalEdgeStyle;rounded=0;orthogonalLoop=1;jettySize=auto;html=1;exitX=1;exitY=0.5;exitDx=0;exitDy=0;entryX=0.153;entryY=1.016;entryDx=0;entryDy=0;entryPerimeter=0;fontSize=16;" edge="1" parent="1" target="5">
          <mxGeometry relative="1" as="geometry">
            <mxPoint x="640" y="76" as="sourcePoint" />
          </mxGeometry>
        </mxCell>
        <mxCell id="tA9zOFN0ShzeOzI9jUtP-98" value="脉冲成型滤波（发射滤波）" style="whiteSpace=wrap;align=center;verticalAlign=middle;fontStyle=0;strokeWidth=1;fillColor=#FFFFCC;fontSize=14;rounded=1;" vertex="1" parent="1">
          <mxGeometry x="550" y="46" width="90" height="60" as="geometry" />
        </mxCell>
        <mxCell id="tA9zOFN0ShzeOzI9jUtP-104" style="edgeStyle=orthogonalEdgeStyle;rounded=0;orthogonalLoop=1;jettySize=auto;html=1;exitX=1;exitY=0.5;exitDx=0;exitDy=0;entryX=0;entryY=0.5;entryDx=0;entryDy=0;fontSize=16;" edge="1" parent="1" source="tA9zOFN0ShzeOzI9jUtP-99" target="tA9zOFN0ShzeOzI9jUtP-98">
          <mxGeometry relative="1" as="geometry" />
        </mxCell>
        <mxCell id="tA9zOFN0ShzeOzI9jUtP-99" value="星座映射(QPSK)，调制" style="whiteSpace=wrap;align=center;verticalAlign=middle;fontStyle=0;strokeWidth=1;fillColor=#FFFFCC;fontSize=14;rounded=1;" vertex="1" parent="1">
          <mxGeometry x="410" y="46" width="100" height="60" as="geometry" />
        </mxCell>
        <mxCell id="tA9zOFN0ShzeOzI9jUtP-103" style="edgeStyle=orthogonalEdgeStyle;rounded=0;orthogonalLoop=1;jettySize=auto;html=1;exitX=1;exitY=0.5;exitDx=0;exitDy=0;entryX=0;entryY=0.5;entryDx=0;entryDy=0;fontSize=16;" edge="1" parent="1" source="tA9zOFN0ShzeOzI9jUtP-100" target="tA9zOFN0ShzeOzI9jUtP-99">
          <mxGeometry relative="1" as="geometry" />
        </mxCell>
        <mxCell id="tA9zOFN0ShzeOzI9jUtP-100" value="信道编码&#xa;（交织）" style="whiteSpace=wrap;align=center;verticalAlign=middle;fontStyle=0;strokeWidth=1;fillColor=#FFFFCC;fontSize=14;rounded=1;" vertex="1" parent="1">
          <mxGeometry x="280" y="46" width="100" height="60" as="geometry" />
        </mxCell>
        <mxCell id="tA9zOFN0ShzeOzI9jUtP-116" style="edgeStyle=orthogonalEdgeStyle;rounded=0;orthogonalLoop=1;jettySize=auto;html=1;exitX=0;exitY=0.5;exitDx=0;exitDy=0;entryX=1;entryY=0.5;entryDx=0;entryDy=0;fontSize=16;" edge="1" parent="1" source="tA9zOFN0ShzeOzI9jUtP-108" target="tA9zOFN0ShzeOzI9jUtP-109">
          <mxGeometry relative="1" as="geometry" />
        </mxCell>
        <mxCell id="tA9zOFN0ShzeOzI9jUtP-108" value="帧同步，粗频偏纠正" style="whiteSpace=wrap;align=center;verticalAlign=middle;fontStyle=0;strokeWidth=1;fillColor=#FFFFCC;fontSize=14;rounded=1;" vertex="1" parent="1">
          <mxGeometry x="550" y="186" width="90" height="60" as="geometry" />
        </mxCell>
        <mxCell id="tA9zOFN0ShzeOzI9jUtP-117" style="edgeStyle=orthogonalEdgeStyle;rounded=0;orthogonalLoop=1;jettySize=auto;html=1;exitX=0;exitY=0.5;exitDx=0;exitDy=0;entryX=1;entryY=0.5;entryDx=0;entryDy=0;fontSize=16;" edge="1" parent="1" source="tA9zOFN0ShzeOzI9jUtP-109" target="tA9zOFN0ShzeOzI9jUtP-110">
          <mxGeometry relative="1" as="geometry" />
        </mxCell>
        <mxCell id="tA9zOFN0ShzeOzI9jUtP-109" value="匹配滤波" style="whiteSpace=wrap;align=center;verticalAlign=middle;fontStyle=0;strokeWidth=1;fillColor=#FFFFCC;fontSize=14;rounded=1;" vertex="1" parent="1">
          <mxGeometry x="420" y="186" width="90" height="60" as="geometry" />
        </mxCell>
        <mxCell id="tA9zOFN0ShzeOzI9jUtP-118" style="edgeStyle=orthogonalEdgeStyle;rounded=0;orthogonalLoop=1;jettySize=auto;html=1;exitX=0;exitY=0.5;exitDx=0;exitDy=0;entryX=1;entryY=0.5;entryDx=0;entryDy=0;fontSize=16;" edge="1" parent="1" source="tA9zOFN0ShzeOzI9jUtP-110" target="tA9zOFN0ShzeOzI9jUtP-111">
          <mxGeometry relative="1" as="geometry" />
        </mxCell>
        <mxCell id="tA9zOFN0ShzeOzI9jUtP-110" value="符号（定时）同步，相偏纠正" style="whiteSpace=wrap;align=center;verticalAlign=middle;fontStyle=0;strokeWidth=1;fillColor=#FFFFCC;fontSize=14;rounded=1;" vertex="1" parent="1">
          <mxGeometry x="280" y="186" width="110" height="60" as="geometry" />
        </mxCell>
        <mxCell id="tA9zOFN0ShzeOzI9jUtP-119" style="edgeStyle=orthogonalEdgeStyle;rounded=0;orthogonalLoop=1;jettySize=auto;html=1;exitX=0;exitY=0.5;exitDx=0;exitDy=0;entryX=1;entryY=0.5;entryDx=0;entryDy=0;fontSize=16;" edge="1" parent="1" source="tA9zOFN0ShzeOzI9jUtP-111" target="tA9zOFN0ShzeOzI9jUtP-113">
          <mxGeometry relative="1" as="geometry" />
        </mxCell>
        <mxCell id="tA9zOFN0ShzeOzI9jUtP-111" value="QPSK解调，反映射，解交织" style="whiteSpace=wrap;align=center;verticalAlign=middle;fontStyle=0;strokeWidth=1;fillColor=#FFFFCC;fontSize=14;rounded=1;" vertex="1" parent="1">
          <mxGeometry x="130" y="186" width="110" height="60" as="geometry" />
        </mxCell>
        <mxCell id="tA9zOFN0ShzeOzI9jUtP-113" value="恢复图像" style="rhombus;whiteSpace=wrap;html=1;rounded=1;sketch=0;strokeWidth=2;fontSize=16;fillColor=#f8cecc;strokeColor=#b85450;opacity=70;" vertex="1" parent="1">
          <mxGeometry x="10" y="176" width="80" height="80" as="geometry" />
        </mxCell>
        <mxCell id="tA9zOFN0ShzeOzI9jUtP-120" value="" style="swimlane;whiteSpace=wrap;html=1;rounded=1;sketch=0;strokeWidth=5;fontSize=16;opacity=70;fillColor=#fff2cc;strokeColor=#d6b656;" vertex="1" parent="1">
          <mxGeometry y="-20" width="820" height="320" as="geometry">
            <mxRectangle y="-20" width="90" height="30" as="alternateBounds" />
          </mxGeometry>
        </mxCell>
      </root>
    </mxGraphModel>
  </diagram>
</mxfile>
